<mxfile host="app.diagrams.net" modified="2024-05-16T09:42:08.884Z" agent="Mozilla/5.0 (Macintosh; Intel Mac OS X 10_15_7) AppleWebKit/605.1.15 (KHTML, like Gecko) Version/17.4.1 Safari/605.1.15" etag="PKz2UDO4OTaRpem9cd4J" version="24.4.2" type="device">
  <diagram id="R2lEEEUBdFMjLlhIrx00" name="Page-1">
    <mxGraphModel dx="1876" dy="720" grid="1" gridSize="10" guides="1" tooltips="1" connect="1" arrows="1" fold="1" page="1" pageScale="1" pageWidth="850" pageHeight="1100" math="0" shadow="0" extFonts="Permanent Marker^https://fonts.googleapis.com/css?family=Permanent+Marker">
      <root>
        <mxCell id="0" />
        <mxCell id="1" parent="0" />
        <mxCell id="uIxwfPzpiajrzy3kSGXg-2" value="&lt;u style=&quot;font-size: 18px;&quot;&gt;&lt;font style=&quot;font-size: 18px;&quot;&gt;PID&lt;/font&gt;&lt;/u&gt;" style="rounded=0;whiteSpace=wrap;html=1;fontSize=18;" parent="1" vertex="1">
          <mxGeometry x="-40" y="110" width="120" height="60" as="geometry" />
        </mxCell>
        <mxCell id="uIxwfPzpiajrzy3kSGXg-3" value="&lt;font style=&quot;font-size: 18px;&quot;&gt;Lname&lt;/font&gt;" style="rounded=0;whiteSpace=wrap;html=1;fontSize=18;" parent="1" vertex="1">
          <mxGeometry x="80" y="110" width="120" height="60" as="geometry" />
        </mxCell>
        <mxCell id="uIxwfPzpiajrzy3kSGXg-4" value="Fname" style="rounded=0;whiteSpace=wrap;html=1;fontSize=18;" parent="1" vertex="1">
          <mxGeometry x="200" y="110" width="120" height="60" as="geometry" />
        </mxCell>
        <mxCell id="uIxwfPzpiajrzy3kSGXg-5" value="Salary" style="rounded=0;whiteSpace=wrap;html=1;fontSize=18;" parent="1" vertex="1">
          <mxGeometry x="320" y="110" width="120" height="60" as="geometry" />
        </mxCell>
        <mxCell id="uIxwfPzpiajrzy3kSGXg-6" value="&lt;font style=&quot;font-size: 18px;&quot;&gt;Player&lt;/font&gt;" style="text;html=1;align=center;verticalAlign=middle;resizable=0;points=[];autosize=1;strokeColor=none;fillColor=none;fontSize=18;" parent="1" vertex="1">
          <mxGeometry x="-120" y="120" width="70" height="40" as="geometry" />
        </mxCell>
        <mxCell id="uIxwfPzpiajrzy3kSGXg-7" value="Bdate" style="rounded=0;whiteSpace=wrap;html=1;fontSize=18;" parent="1" vertex="1">
          <mxGeometry x="440" y="110" width="120" height="60" as="geometry" />
        </mxCell>
        <mxCell id="uIxwfPzpiajrzy3kSGXg-11" value="Height" style="rounded=0;whiteSpace=wrap;html=1;fontSize=18;" parent="1" vertex="1">
          <mxGeometry x="560" y="110" width="120" height="60" as="geometry" />
        </mxCell>
        <mxCell id="uIxwfPzpiajrzy3kSGXg-12" value="Weight" style="rounded=0;whiteSpace=wrap;html=1;fontSize=18;" parent="1" vertex="1">
          <mxGeometry x="680" y="110" width="120" height="60" as="geometry" />
        </mxCell>
        <mxCell id="uIxwfPzpiajrzy3kSGXg-13" value="Position" style="rounded=0;whiteSpace=wrap;html=1;fontSize=18;" parent="1" vertex="1">
          <mxGeometry x="800" y="110" width="120" height="60" as="geometry" />
        </mxCell>
        <mxCell id="uIxwfPzpiajrzy3kSGXg-14" value="Country" style="rounded=0;whiteSpace=wrap;html=1;fontSize=18;" parent="1" vertex="1">
          <mxGeometry x="920" y="110" width="120" height="60" as="geometry" />
        </mxCell>
        <mxCell id="uIxwfPzpiajrzy3kSGXg-15" value="&lt;u style=&quot;font-size: 18px;&quot;&gt;PID&lt;/u&gt;" style="rounded=0;whiteSpace=wrap;html=1;fontSize=18;" parent="1" vertex="1">
          <mxGeometry x="-40" y="300" width="120" height="60" as="geometry" />
        </mxCell>
        <mxCell id="uIxwfPzpiajrzy3kSGXg-16" value="&lt;u style=&quot;font-size: 18px;&quot;&gt;GID&lt;/u&gt;" style="rounded=0;whiteSpace=wrap;html=1;fontSize=18;" parent="1" vertex="1">
          <mxGeometry x="80" y="300" width="120" height="60" as="geometry" />
        </mxCell>
        <mxCell id="uIxwfPzpiajrzy3kSGXg-17" value="Assist" style="rounded=0;whiteSpace=wrap;html=1;fontSize=18;" parent="1" vertex="1">
          <mxGeometry x="200" y="300" width="120" height="60" as="geometry" />
        </mxCell>
        <mxCell id="uIxwfPzpiajrzy3kSGXg-18" value="Hit" style="rounded=0;whiteSpace=wrap;html=1;fontSize=18;" parent="1" vertex="1">
          <mxGeometry x="320" y="300" width="120" height="60" as="geometry" />
        </mxCell>
        <mxCell id="uIxwfPzpiajrzy3kSGXg-19" value="&lt;font style=&quot;font-size: 18px;&quot;&gt;GameRecord&lt;/font&gt;" style="text;html=1;align=center;verticalAlign=middle;resizable=0;points=[];autosize=1;strokeColor=none;fillColor=none;" parent="1" vertex="1">
          <mxGeometry x="-170" y="310" width="130" height="40" as="geometry" />
        </mxCell>
        <mxCell id="uIxwfPzpiajrzy3kSGXg-20" value="Steal" style="rounded=0;whiteSpace=wrap;html=1;fontSize=18;" parent="1" vertex="1">
          <mxGeometry x="440" y="300" width="120" height="60" as="geometry" />
        </mxCell>
        <mxCell id="uIxwfPzpiajrzy3kSGXg-21" value="Rebound" style="rounded=0;whiteSpace=wrap;html=1;fontSize=18;" parent="1" vertex="1">
          <mxGeometry x="560" y="300" width="120" height="60" as="geometry" />
        </mxCell>
        <mxCell id="uIxwfPzpiajrzy3kSGXg-22" value="FreeThrow" style="rounded=0;whiteSpace=wrap;html=1;fontSize=18;" parent="1" vertex="1">
          <mxGeometry x="680" y="300" width="120" height="60" as="geometry" />
        </mxCell>
        <mxCell id="uIxwfPzpiajrzy3kSGXg-35" value="&lt;u style=&quot;font-size: 18px;&quot;&gt;TID&lt;/u&gt;" style="rounded=0;whiteSpace=wrap;html=1;fontSize=18;" parent="1" vertex="1">
          <mxGeometry x="-30" y="500" width="120" height="60" as="geometry" />
        </mxCell>
        <mxCell id="uIxwfPzpiajrzy3kSGXg-36" value="City" style="rounded=0;whiteSpace=wrap;html=1;fontSize=18;" parent="1" vertex="1">
          <mxGeometry x="90" y="500" width="120" height="60" as="geometry" />
        </mxCell>
        <mxCell id="uIxwfPzpiajrzy3kSGXg-37" value="CoachName" style="rounded=0;whiteSpace=wrap;html=1;fontSize=18;" parent="1" vertex="1">
          <mxGeometry x="210" y="500" width="120" height="60" as="geometry" />
        </mxCell>
        <mxCell id="uIxwfPzpiajrzy3kSGXg-38" value="YearFounded" style="rounded=0;whiteSpace=wrap;html=1;fontSize=18;" parent="1" vertex="1">
          <mxGeometry x="330" y="500" width="140" height="60" as="geometry" />
        </mxCell>
        <mxCell id="uIxwfPzpiajrzy3kSGXg-39" value="&lt;font style=&quot;font-size: 18px;&quot;&gt;Team&lt;/font&gt;" style="text;html=1;align=center;verticalAlign=middle;resizable=0;points=[];autosize=1;strokeColor=none;fillColor=none;fontSize=18;" parent="1" vertex="1">
          <mxGeometry x="-120" y="510" width="70" height="40" as="geometry" />
        </mxCell>
        <mxCell id="uIxwfPzpiajrzy3kSGXg-45" value="&lt;u style=&quot;font-size: 18px;&quot;&gt;GID&lt;/u&gt;" style="rounded=0;whiteSpace=wrap;html=1;fontSize=18;" parent="1" vertex="1">
          <mxGeometry x="-30" y="680" width="120" height="60" as="geometry" />
        </mxCell>
        <mxCell id="uIxwfPzpiajrzy3kSGXg-46" value="Date" style="rounded=0;whiteSpace=wrap;html=1;fontSize=18;" parent="1" vertex="1">
          <mxGeometry x="90" y="680" width="120" height="60" as="geometry" />
        </mxCell>
        <mxCell id="uIxwfPzpiajrzy3kSGXg-47" value="Place" style="rounded=0;whiteSpace=wrap;html=1;fontSize=18;" parent="1" vertex="1">
          <mxGeometry x="210" y="680" width="120" height="60" as="geometry" />
        </mxCell>
        <mxCell id="uIxwfPzpiajrzy3kSGXg-48" value="SID" style="rounded=0;whiteSpace=wrap;html=1;fontSize=18;" parent="1" vertex="1">
          <mxGeometry x="330" y="680" width="120" height="60" as="geometry" />
        </mxCell>
        <mxCell id="uIxwfPzpiajrzy3kSGXg-49" value="&lt;font style=&quot;font-size: 18px;&quot;&gt;Game&lt;/font&gt;" style="text;html=1;align=center;verticalAlign=middle;resizable=0;points=[];autosize=1;strokeColor=none;fillColor=none;fontSize=18;" parent="1" vertex="1">
          <mxGeometry x="-115" y="690" width="70" height="40" as="geometry" />
        </mxCell>
        <mxCell id="uIxwfPzpiajrzy3kSGXg-55" value="&lt;u style=&quot;font-size: 18px;&quot;&gt;SID&lt;/u&gt;" style="rounded=0;whiteSpace=wrap;html=1;fontSize=18;" parent="1" vertex="1">
          <mxGeometry x="-30" y="880" width="120" height="60" as="geometry" />
        </mxCell>
        <mxCell id="uIxwfPzpiajrzy3kSGXg-56" value="Year" style="rounded=0;whiteSpace=wrap;html=1;fontSize=18;" parent="1" vertex="1">
          <mxGeometry x="90" y="880" width="120" height="60" as="geometry" />
        </mxCell>
        <mxCell id="uIxwfPzpiajrzy3kSGXg-59" value="&lt;font style=&quot;font-size: 18px;&quot;&gt;Season&lt;/font&gt;" style="text;html=1;align=center;verticalAlign=middle;resizable=0;points=[];autosize=1;strokeColor=none;fillColor=none;fontSize=18;" parent="1" vertex="1">
          <mxGeometry x="-115" y="890" width="80" height="40" as="geometry" />
        </mxCell>
        <mxCell id="uIxwfPzpiajrzy3kSGXg-65" value="&lt;u style=&quot;font-size: 18px;&quot;&gt;GID&lt;/u&gt;" style="rounded=0;whiteSpace=wrap;html=1;fontSize=18;" parent="1" vertex="1">
          <mxGeometry x="-40" y="1060" width="120" height="60" as="geometry" />
        </mxCell>
        <mxCell id="uIxwfPzpiajrzy3kSGXg-66" value="&lt;u style=&quot;font-size: 18px;&quot;&gt;TID&lt;/u&gt;" style="rounded=0;whiteSpace=wrap;html=1;fontSize=18;" parent="1" vertex="1">
          <mxGeometry x="80" y="1060" width="120" height="60" as="geometry" />
        </mxCell>
        <mxCell id="uIxwfPzpiajrzy3kSGXg-67" value="Is_home_team" style="rounded=0;whiteSpace=wrap;html=1;fontSize=18;" parent="1" vertex="1">
          <mxGeometry x="200" y="1060" width="140" height="60" as="geometry" />
        </mxCell>
        <mxCell id="uIxwfPzpiajrzy3kSGXg-68" value="Score" style="rounded=0;whiteSpace=wrap;html=1;fontSize=18;" parent="1" vertex="1">
          <mxGeometry x="340" y="1060" width="120" height="60" as="geometry" />
        </mxCell>
        <mxCell id="uIxwfPzpiajrzy3kSGXg-69" value="&lt;font style=&quot;font-size: 18px;&quot;&gt;Attend&lt;/font&gt;" style="text;html=1;align=center;verticalAlign=middle;resizable=0;points=[];autosize=1;strokeColor=none;fillColor=none;fontSize=18;" parent="1" vertex="1">
          <mxGeometry x="-125" y="1075" width="80" height="40" as="geometry" />
        </mxCell>
        <mxCell id="uIxwfPzpiajrzy3kSGXg-85" value="" style="edgeStyle=segmentEdgeStyle;endArrow=classic;html=1;curved=0;rounded=0;endSize=8;startSize=8;entryX=0.5;entryY=1;entryDx=0;entryDy=0;exitX=0.5;exitY=1;exitDx=0;exitDy=0;fontSize=18;" parent="1" source="uIxwfPzpiajrzy3kSGXg-15" target="uIxwfPzpiajrzy3kSGXg-2" edge="1">
          <mxGeometry width="50" height="50" relative="1" as="geometry">
            <mxPoint x="240" y="310" as="sourcePoint" />
            <mxPoint x="290" y="260" as="targetPoint" />
            <Array as="points">
              <mxPoint x="20" y="440" />
              <mxPoint x="1000" y="440" />
              <mxPoint x="1000" y="230" />
              <mxPoint x="20" y="230" />
            </Array>
          </mxGeometry>
        </mxCell>
        <mxCell id="uIxwfPzpiajrzy3kSGXg-86" value="" style="edgeStyle=segmentEdgeStyle;endArrow=classic;html=1;curved=0;rounded=0;endSize=8;startSize=8;entryX=0.5;entryY=1;entryDx=0;entryDy=0;exitX=0.5;exitY=1;exitDx=0;exitDy=0;fontSize=18;" parent="1" source="uIxwfPzpiajrzy3kSGXg-66" target="uIxwfPzpiajrzy3kSGXg-35" edge="1">
          <mxGeometry width="50" height="50" relative="1" as="geometry">
            <mxPoint x="540" y="1150" as="sourcePoint" />
            <mxPoint x="110" y="660" as="targetPoint" />
            <Array as="points">
              <mxPoint x="140" y="1180" />
              <mxPoint x="640" y="1180" />
              <mxPoint x="640" y="650" />
              <mxPoint x="30" y="650" />
            </Array>
          </mxGeometry>
        </mxCell>
        <mxCell id="uIxwfPzpiajrzy3kSGXg-87" value="" style="edgeStyle=segmentEdgeStyle;endArrow=classic;html=1;curved=0;rounded=0;endSize=8;startSize=8;entryX=0.5;entryY=1;entryDx=0;entryDy=0;exitX=0.5;exitY=1;exitDx=0;exitDy=0;fontSize=18;" parent="1" source="uIxwfPzpiajrzy3kSGXg-16" target="uIxwfPzpiajrzy3kSGXg-45" edge="1">
          <mxGeometry width="50" height="50" relative="1" as="geometry">
            <mxPoint x="30" y="370" as="sourcePoint" />
            <mxPoint x="30" y="180" as="targetPoint" />
            <Array as="points">
              <mxPoint x="140" y="410" />
              <mxPoint x="790" y="410" />
              <mxPoint x="790" y="800" />
              <mxPoint x="30" y="800" />
            </Array>
          </mxGeometry>
        </mxCell>
        <mxCell id="uIxwfPzpiajrzy3kSGXg-88" value="" style="edgeStyle=segmentEdgeStyle;endArrow=classic;html=1;curved=0;rounded=0;endSize=8;startSize=8;entryX=0.5;entryY=1;entryDx=0;entryDy=0;exitX=0.5;exitY=1;exitDx=0;exitDy=0;fontSize=18;" parent="1" source="uIxwfPzpiajrzy3kSGXg-48" target="uIxwfPzpiajrzy3kSGXg-55" edge="1">
          <mxGeometry width="50" height="50" relative="1" as="geometry">
            <mxPoint x="320" y="545" as="sourcePoint" />
            <mxPoint x="210" y="925" as="targetPoint" />
            <Array as="points">
              <mxPoint x="390" y="990" />
              <mxPoint x="30" y="990" />
            </Array>
          </mxGeometry>
        </mxCell>
        <mxCell id="uIxwfPzpiajrzy3kSGXg-90" value="" style="edgeStyle=segmentEdgeStyle;endArrow=classic;html=1;curved=0;rounded=0;endSize=8;startSize=8;entryX=0.669;entryY=1.011;entryDx=0;entryDy=0;exitX=0.5;exitY=1;exitDx=0;exitDy=0;entryPerimeter=0;fontSize=18;" parent="1" source="uIxwfPzpiajrzy3kSGXg-65" target="uIxwfPzpiajrzy3kSGXg-45" edge="1">
          <mxGeometry width="50" height="50" relative="1" as="geometry">
            <mxPoint x="30" y="1140" as="sourcePoint" />
            <mxPoint x="40" y="760" as="targetPoint" />
            <Array as="points">
              <mxPoint x="20" y="1210" />
              <mxPoint x="580" y="1210" />
              <mxPoint x="580" y="840" />
              <mxPoint x="80" y="840" />
              <mxPoint x="80" y="760" />
              <mxPoint x="50" y="760" />
            </Array>
          </mxGeometry>
        </mxCell>
        <mxCell id="uIxwfPzpiajrzy3kSGXg-91" value="TID" style="rounded=0;whiteSpace=wrap;html=1;fontSize=18;" parent="1" vertex="1">
          <mxGeometry x="1040" y="110" width="120" height="60" as="geometry" />
        </mxCell>
        <mxCell id="uIxwfPzpiajrzy3kSGXg-92" value="" style="edgeStyle=segmentEdgeStyle;endArrow=classic;html=1;curved=0;rounded=0;endSize=8;startSize=8;entryX=0.75;entryY=1;entryDx=0;entryDy=0;exitX=0.5;exitY=1;exitDx=0;exitDy=0;fontSize=18;" parent="1" source="uIxwfPzpiajrzy3kSGXg-91" target="uIxwfPzpiajrzy3kSGXg-35" edge="1">
          <mxGeometry width="50" height="50" relative="1" as="geometry">
            <mxPoint x="710" y="900" as="sourcePoint" />
            <mxPoint x="600" y="340" as="targetPoint" />
            <Array as="points">
              <mxPoint x="1100" y="630" />
              <mxPoint x="60" y="630" />
            </Array>
          </mxGeometry>
        </mxCell>
        <mxCell id="uIxwfPzpiajrzy3kSGXg-93" value="&lt;font style=&quot;font-size: 24px;&quot;&gt;&lt;b&gt;Relational Schema&lt;/b&gt;&lt;/font&gt;" style="text;html=1;align=center;verticalAlign=middle;resizable=0;points=[];autosize=1;strokeColor=none;fillColor=none;" parent="1" vertex="1">
          <mxGeometry x="-390" y="40" width="240" height="40" as="geometry" />
        </mxCell>
        <mxCell id="eBMieuoR2ky231N-ZAj3-1" value="Score" style="rounded=0;whiteSpace=wrap;html=1;fontSize=18;" vertex="1" parent="1">
          <mxGeometry x="800" y="300" width="120" height="60" as="geometry" />
        </mxCell>
      </root>
    </mxGraphModel>
  </diagram>
</mxfile>
